<svg width="357" height="496" viewBox="0 0 357 496" fill="none" xmlns="http://www.w3.org/2000/svg">
<path opacity="0.1" d="M0 489.796L37.8708 439.817V56.1835L0 6.20431V0H192.452C228.257 0 258.439 6.08941 282.998 18.2682C307.786 30.2173 326.262 46.9919 338.427 68.5921C350.821 89.9625 357.018 114.665 357.018 142.699C357.018 173.95 350.362 200.951 337.05 223.7C323.967 246.449 304.343 264.028 278.178 276.436C252.242 288.615 220.568 294.705 183.157 294.705H161.467L165.943 277.126H181.435C192.682 277.126 203.24 272.415 213.109 262.994C223.208 253.572 231.356 238.866 237.553 218.874C243.75 198.653 246.849 173.146 246.849 142.354C246.849 98.4647 240.537 66.7538 227.913 47.2217C215.519 27.4598 195.895 17.5789 169.041 17.5789H141.155V439.817L185.222 489.796V496H0V489.796Z" fill="#ECA6A1"/>
</svg>
